<mxfile host="65bd71144e" modified="2021-01-12T18:11:19.165Z" agent="5.0 (X11; Linux x86_64) AppleWebKit/537.36 (KHTML, like Gecko) Code/1.52.1 Chrome/83.0.4103.122 Electron/9.3.5 Safari/537.36" etag="RQ_q-Jv6951bEniatQow" version="13.10.0" type="embed" pages="2">
    <diagram id="4q4zT_EYPk3diKyVNwrd" name="Page-1">
        <mxGraphModel dx="1112" dy="707" grid="1" gridSize="10" guides="1" tooltips="1" connect="1" arrows="1" fold="1" page="1" pageScale="1" pageWidth="850" pageHeight="1100" background="#000099" math="0" shadow="0">
            <root>
                <mxCell id="0"/>
                <mxCell id="1" parent="0"/>
                <mxCell id="GYX6j8tE0jOFINhNC3Ar-2" value="" style="rounded=1;whiteSpace=wrap;html=1;align=right;" parent="1" vertex="1">
                    <mxGeometry x="423" y="130" width="296" height="115" as="geometry"/>
                </mxCell>
                <mxCell id="csX2sQHDqy6ObiTzpXhX-31" style="edgeStyle=orthogonalEdgeStyle;rounded=0;orthogonalLoop=1;jettySize=auto;html=1;exitX=0.75;exitY=0;exitDx=0;exitDy=0;entryX=0;entryY=0.5;entryDx=0;entryDy=0;" parent="1" source="GYX6j8tE0jOFINhNC3Ar-1" target="csX2sQHDqy6ObiTzpXhX-12" edge="1">
                    <mxGeometry relative="1" as="geometry"/>
                </mxCell>
                <mxCell id="csX2sQHDqy6ObiTzpXhX-32" style="edgeStyle=orthogonalEdgeStyle;rounded=0;orthogonalLoop=1;jettySize=auto;html=1;exitX=0.25;exitY=0;exitDx=0;exitDy=0;entryX=0;entryY=0.5;entryDx=0;entryDy=0;" parent="1" source="GYX6j8tE0jOFINhNC3Ar-1" target="csX2sQHDqy6ObiTzpXhX-11" edge="1">
                    <mxGeometry relative="1" as="geometry"/>
                </mxCell>
                <mxCell id="GYX6j8tE0jOFINhNC3Ar-1" value="&lt;div&gt;Controller&lt;/div&gt;Node&lt;br&gt;(250 Hz)" style="rounded=1;whiteSpace=wrap;html=1;" parent="1" vertex="1">
                    <mxGeometry x="95" y="289" width="120" height="90" as="geometry"/>
                </mxCell>
                <mxCell id="GYX6j8tE0jOFINhNC3Ar-3" value="&lt;div&gt;RL_Sim Node&lt;/div&gt;&lt;div&gt;(~350 Hz)&lt;/div&gt;&lt;div&gt;Note: Varies on Solver Params&lt;/div&gt;" style="rounded=1;whiteSpace=wrap;html=1;" parent="1" vertex="1">
                    <mxGeometry x="95" y="639" width="120" height="90" as="geometry"/>
                </mxCell>
                <mxCell id="GYX6j8tE0jOFINhNC3Ar-4" value="" style="endArrow=classic;html=1;exitX=0.5;exitY=0;exitDx=0;exitDy=0;entryX=0.5;entryY=1;entryDx=0;entryDy=0;" parent="1" source="GYX6j8tE0jOFINhNC3Ar-3" target="GYX6j8tE0jOFINhNC3Ar-1" edge="1">
                    <mxGeometry width="50" height="50" relative="1" as="geometry">
                        <mxPoint x="380" y="599" as="sourcePoint"/>
                        <mxPoint x="430" y="549" as="targetPoint"/>
                    </mxGeometry>
                </mxCell>
                <mxCell id="GYX6j8tE0jOFINhNC3Ar-5" value="&lt;div&gt;Action&lt;br&gt;&lt;/div&gt;&lt;div&gt;Commands&lt;/div&gt;&lt;div&gt;(RLCmd&lt;span&gt;.msg)&lt;/span&gt;&lt;/div&gt;" style="text;html=1;align=center;verticalAlign=middle;resizable=0;points=[];autosize=1;" parent="1" vertex="1">
                    <mxGeometry x="55" y="479" width="90" height="50" as="geometry"/>
                </mxCell>
                <mxCell id="GYX6j8tE0jOFINhNC3Ar-6" value="&lt;div&gt;&lt;font style=&quot;font-size: 20px&quot;&gt;ROS Network - Simulation&lt;br&gt;&lt;/font&gt; &lt;/div&gt;" style="text;html=1;align=center;verticalAlign=middle;resizable=0;points=[];autosize=1;" parent="1" vertex="1">
                    <mxGeometry x="285" y="80" width="280" height="20" as="geometry"/>
                </mxCell>
                <mxCell id="GYX6j8tE0jOFINhNC3Ar-9" value="&lt;div&gt;Dashboard GUI&lt;br&gt;&lt;/div&gt;&lt;div&gt;Node&lt;br&gt;&lt;/div&gt;&lt;div&gt;&amp;amp;&lt;/div&gt;&lt;div&gt;Data Logging&lt;/div&gt;&lt;div&gt;Node&lt;/div&gt;" style="rounded=1;whiteSpace=wrap;html=1;" parent="1" vertex="1">
                    <mxGeometry x="590" y="639" width="120" height="90" as="geometry"/>
                </mxCell>
                <mxCell id="GYX6j8tE0jOFINhNC3Ar-10" value="" style="endArrow=classic;html=1;entryX=1;entryY=0;entryDx=0;entryDy=0;exitX=0;exitY=1;exitDx=0;exitDy=0;" parent="1" source="csX2sQHDqy6ObiTzpXhX-1" target="GYX6j8tE0jOFINhNC3Ar-3" edge="1">
                    <mxGeometry width="50" height="50" relative="1" as="geometry">
                        <mxPoint x="430" y="469" as="sourcePoint"/>
                        <mxPoint x="570" y="549" as="targetPoint"/>
                    </mxGeometry>
                </mxCell>
                <mxCell id="GYX6j8tE0jOFINhNC3Ar-23" value="" style="endArrow=classic;html=1;exitX=1;exitY=0.5;exitDx=0;exitDy=0;entryX=0;entryY=0.5;entryDx=0;entryDy=0;" parent="1" source="GYX6j8tE0jOFINhNC3Ar-3" target="GYX6j8tE0jOFINhNC3Ar-9" edge="1">
                    <mxGeometry width="50" height="50" relative="1" as="geometry">
                        <mxPoint x="389.5" y="684" as="sourcePoint"/>
                        <mxPoint x="389.5" y="449" as="targetPoint"/>
                    </mxGeometry>
                </mxCell>
                <mxCell id="GYX6j8tE0jOFINhNC3Ar-46" value="&lt;div&gt;CrazySwarm Node&lt;/div&gt;&lt;div&gt;(CF Controller)&lt;br&gt;&lt;/div&gt;" style="rounded=1;whiteSpace=wrap;html=1;" parent="1" vertex="1">
                    <mxGeometry x="1008" y="280" width="120" height="90" as="geometry"/>
                </mxCell>
                <mxCell id="GYX6j8tE0jOFINhNC3Ar-47" value="&lt;div&gt;VICON Node&lt;/div&gt;&lt;div&gt;(Vicon_Bridge)&lt;br&gt;&lt;/div&gt;" style="rounded=1;whiteSpace=wrap;html=1;" parent="1" vertex="1">
                    <mxGeometry x="1503" y="280" width="120" height="90" as="geometry"/>
                </mxCell>
                <mxCell id="GYX6j8tE0jOFINhNC3Ar-48" value="&lt;div&gt;RL_Exp Node&lt;/div&gt;" style="rounded=1;whiteSpace=wrap;html=1;" parent="1" vertex="1">
                    <mxGeometry x="1008" y="630" width="120" height="90" as="geometry"/>
                </mxCell>
                <mxCell id="GYX6j8tE0jOFINhNC3Ar-49" value="" style="endArrow=classic;html=1;exitX=0.5;exitY=0;exitDx=0;exitDy=0;entryX=0.5;entryY=1;entryDx=0;entryDy=0;" parent="1" source="GYX6j8tE0jOFINhNC3Ar-48" target="GYX6j8tE0jOFINhNC3Ar-46" edge="1">
                    <mxGeometry width="50" height="50" relative="1" as="geometry">
                        <mxPoint x="1293" y="590" as="sourcePoint"/>
                        <mxPoint x="1343" y="540" as="targetPoint"/>
                    </mxGeometry>
                </mxCell>
                <mxCell id="GYX6j8tE0jOFINhNC3Ar-50" value="&lt;font style=&quot;font-size: 20px&quot;&gt;ROS Network - Experiment&lt;br&gt;&lt;/font&gt;" style="text;html=1;align=center;verticalAlign=middle;resizable=0;points=[];autosize=1;" parent="1" vertex="1">
                    <mxGeometry x="1153" y="216" width="290" height="20" as="geometry"/>
                </mxCell>
                <mxCell id="GYX6j8tE0jOFINhNC3Ar-51" value="&lt;div&gt;MS Commands&lt;/div&gt;&lt;div&gt;(MSCommands.msg)&lt;/div&gt;" style="text;html=1;align=center;verticalAlign=middle;resizable=0;points=[];autosize=1;rotation=35;" parent="1" vertex="1">
                    <mxGeometry x="1124" y="440" width="140" height="30" as="geometry"/>
                </mxCell>
                <mxCell id="GYX6j8tE0jOFINhNC3Ar-52" value="&lt;div&gt;Dashboard GUI&lt;br&gt;&lt;/div&gt;&lt;div&gt;Node&lt;br&gt;&lt;/div&gt;" style="rounded=1;whiteSpace=wrap;html=1;" parent="1" vertex="1">
                    <mxGeometry x="1503" y="630" width="120" height="90" as="geometry"/>
                </mxCell>
                <mxCell id="GYX6j8tE0jOFINhNC3Ar-53" value="" style="endArrow=classic;html=1;exitX=0;exitY=1;exitDx=0;exitDy=0;entryX=1;entryY=0;entryDx=0;entryDy=0;" parent="1" source="GYX6j8tE0jOFINhNC3Ar-47" target="GYX6j8tE0jOFINhNC3Ar-48" edge="1">
                    <mxGeometry width="50" height="50" relative="1" as="geometry">
                        <mxPoint x="1123" y="540" as="sourcePoint"/>
                        <mxPoint x="1483" y="540" as="targetPoint"/>
                    </mxGeometry>
                </mxCell>
                <mxCell id="GYX6j8tE0jOFINhNC3Ar-54" value="" style="endArrow=classic;html=1;entryX=0.25;entryY=0;entryDx=0;entryDy=0;exitX=1;exitY=0.75;exitDx=0;exitDy=0;" parent="1" source="GYX6j8tE0jOFINhNC3Ar-46" target="GYX6j8tE0jOFINhNC3Ar-52" edge="1">
                    <mxGeometry width="50" height="50" relative="1" as="geometry">
                        <mxPoint x="1193" y="350" as="sourcePoint"/>
                        <mxPoint x="1163" y="765" as="targetPoint"/>
                    </mxGeometry>
                </mxCell>
                <mxCell id="GYX6j8tE0jOFINhNC3Ar-55" value="&lt;div&gt;Global State - Reward Func&lt;br&gt;&lt;/div&gt;&lt;div&gt; (GlobalState.msg)&lt;br&gt;&lt;/div&gt;" style="text;html=1;align=center;verticalAlign=middle;resizable=0;points=[];autosize=1;rotation=-35;" parent="1" vertex="1">
                    <mxGeometry x="1140" y="562" width="180" height="30" as="geometry"/>
                </mxCell>
                <mxCell id="GYX6j8tE0jOFINhNC3Ar-56" value="" style="endArrow=classic;html=1;exitX=0;exitY=0.25;exitDx=0;exitDy=0;entryX=1;entryY=0.25;entryDx=0;entryDy=0;" parent="1" source="GYX6j8tE0jOFINhNC3Ar-47" target="GYX6j8tE0jOFINhNC3Ar-46" edge="1">
                    <mxGeometry width="50" height="50" relative="1" as="geometry">
                        <mxPoint x="1423" y="325" as="sourcePoint"/>
                        <mxPoint x="1033" y="605" as="targetPoint"/>
                    </mxGeometry>
                </mxCell>
                <mxCell id="GYX6j8tE0jOFINhNC3Ar-57" value="&lt;div&gt;Global State - Position&lt;br&gt;&lt;/div&gt;&lt;div&gt;(GlobalState.msg)&lt;br&gt;&lt;/div&gt;" style="text;html=1;align=center;verticalAlign=middle;resizable=0;points=[];autosize=1;rotation=0;" parent="1" vertex="1">
                    <mxGeometry x="1243" y="270" width="150" height="30" as="geometry"/>
                </mxCell>
                <mxCell id="GYX6j8tE0jOFINhNC3Ar-61" value="&lt;div&gt;Global State&lt;/div&gt;&lt;div&gt;(GlobalState.msg)&lt;/div&gt;" style="text;html=1;align=center;verticalAlign=middle;resizable=0;points=[];autosize=1;rotation=0;" parent="1" vertex="1">
                    <mxGeometry x="1560" y="480" width="130" height="30" as="geometry"/>
                </mxCell>
                <mxCell id="GYX6j8tE0jOFINhNC3Ar-62" value="" style="endArrow=classic;html=1;exitX=0.5;exitY=1;exitDx=0;exitDy=0;entryX=0.5;entryY=0;entryDx=0;entryDy=0;" parent="1" source="GYX6j8tE0jOFINhNC3Ar-47" target="GYX6j8tE0jOFINhNC3Ar-52" edge="1">
                    <mxGeometry width="50" height="50" relative="1" as="geometry">
                        <mxPoint x="1503" y="335" as="sourcePoint"/>
                        <mxPoint x="1143" y="335" as="targetPoint"/>
                    </mxGeometry>
                </mxCell>
                <mxCell id="GYX6j8tE0jOFINhNC3Ar-63" value="&lt;div&gt;Estimated State&lt;/div&gt;&lt;div&gt;(EstState.msg)&lt;br&gt;&lt;/div&gt;" style="text;html=1;align=center;verticalAlign=middle;resizable=0;points=[];autosize=1;rotation=35;" parent="1" vertex="1">
                    <mxGeometry x="1182" y="387" width="110" height="30" as="geometry"/>
                </mxCell>
                <mxCell id="GYX6j8tE0jOFINhNC3Ar-64" value="" style="endArrow=classic;html=1;exitX=1;exitY=0.5;exitDx=0;exitDy=0;entryX=0;entryY=0.5;entryDx=0;entryDy=0;" parent="1" source="GYX6j8tE0jOFINhNC3Ar-48" target="GYX6j8tE0jOFINhNC3Ar-52" edge="1">
                    <mxGeometry width="50" height="50" relative="1" as="geometry">
                        <mxPoint x="1302.5" y="675" as="sourcePoint"/>
                        <mxPoint x="1302.5" y="440" as="targetPoint"/>
                    </mxGeometry>
                </mxCell>
                <mxCell id="GYX6j8tE0jOFINhNC3Ar-65" value="&lt;div&gt;Reward Data&lt;/div&gt;&lt;div&gt;(Reward.msg)&lt;br&gt;&lt;/div&gt;" style="text;html=1;align=center;verticalAlign=middle;resizable=0;points=[];autosize=1;rotation=0;" parent="1" vertex="1">
                    <mxGeometry x="1268" y="640" width="100" height="30" as="geometry"/>
                </mxCell>
                <mxCell id="GYX6j8tE0jOFINhNC3Ar-68" value="" style="endArrow=classic;html=1;exitX=0.75;exitY=1;exitDx=0;exitDy=0;entryX=0;entryY=0.25;entryDx=0;entryDy=0;" parent="1" source="GYX6j8tE0jOFINhNC3Ar-46" target="GYX6j8tE0jOFINhNC3Ar-52" edge="1">
                    <mxGeometry width="50" height="50" relative="1" as="geometry">
                        <mxPoint x="1503" y="312.5" as="sourcePoint"/>
                        <mxPoint x="1143" y="312.5" as="targetPoint"/>
                    </mxGeometry>
                </mxCell>
                <mxCell id="GYX6j8tE0jOFINhNC3Ar-71" value="&lt;div&gt;Action&lt;br&gt;&lt;/div&gt;&lt;div&gt;Commands&lt;/div&gt;&lt;div&gt;(CFCommands.msg)&lt;br&gt;&lt;/div&gt;" style="text;html=1;align=center;verticalAlign=middle;resizable=0;points=[];autosize=1;" parent="1" vertex="1">
                    <mxGeometry x="920" y="470" width="140" height="50" as="geometry"/>
                </mxCell>
                <mxCell id="GYX6j8tE0jOFINhNC3Ar-72" value="" style="endArrow=classic;html=1;entryX=0;entryY=0;entryDx=0;entryDy=0;exitX=1;exitY=1;exitDx=0;exitDy=0;" parent="1" source="GYX6j8tE0jOFINhNC3Ar-1" target="GYX6j8tE0jOFINhNC3Ar-9" edge="1">
                    <mxGeometry width="50" height="50" relative="1" as="geometry">
                        <mxPoint x="210" y="378" as="sourcePoint"/>
                        <mxPoint x="570" y="378" as="targetPoint"/>
                    </mxGeometry>
                </mxCell>
                <mxCell id="GYX6j8tE0jOFINhNC3Ar-78" value="&lt;div&gt;Reward Data&lt;/div&gt;&lt;div&gt;(Reward.msg)&lt;br&gt;&lt;/div&gt;" style="text;html=1;align=center;verticalAlign=middle;resizable=0;points=[];autosize=1;rotation=0;" parent="1" vertex="1">
                    <mxGeometry x="355" y="649" width="100" height="30" as="geometry"/>
                </mxCell>
                <mxCell id="GYX6j8tE0jOFINhNC3Ar-79" value="&lt;div&gt;Global State - Reward Func&lt;br&gt;&lt;/div&gt;&lt;div&gt; (GlobalState.msg)&lt;br&gt;&lt;/div&gt;" style="text;html=1;align=center;verticalAlign=middle;resizable=0;points=[];autosize=1;rotation=-35;" parent="1" vertex="1">
                    <mxGeometry x="240" y="569" width="180" height="30" as="geometry"/>
                </mxCell>
                <mxCell id="GYX6j8tE0jOFINhNC3Ar-80" value="&lt;div&gt;MS Commands&lt;/div&gt;&lt;div&gt;(CtrlData.msg)&lt;/div&gt;" style="text;html=1;align=center;verticalAlign=middle;resizable=0;points=[];autosize=1;rotation=35;" parent="1" vertex="1">
                    <mxGeometry x="233" y="431" width="100" height="30" as="geometry"/>
                </mxCell>
                <mxCell id="GYX6j8tE0jOFINhNC3Ar-81" value="&lt;div&gt;Global State&lt;/div&gt;&lt;div&gt;(GlobalState.msg)&lt;/div&gt;" style="text;html=1;align=center;verticalAlign=middle;resizable=0;points=[];autosize=1;rotation=0;" parent="1" vertex="1">
                    <mxGeometry x="500" y="499" width="130" height="30" as="geometry"/>
                </mxCell>
                <mxCell id="GYX6j8tE0jOFINhNC3Ar-82" value="&lt;div&gt;TBD: Estimated State&lt;/div&gt;&lt;div&gt;(EstState.msg)&lt;br&gt;&lt;/div&gt;" style="text;html=1;align=center;verticalAlign=middle;resizable=0;points=[];autosize=1;rotation=0;" parent="1" vertex="1">
                    <mxGeometry x="680" y="499" width="130" height="30" as="geometry"/>
                </mxCell>
                <mxCell id="GYX6j8tE0jOFINhNC3Ar-84" value="&lt;div&gt;TBD: Estimated State (EstState.msg)&lt;br&gt;&lt;/div&gt;" style="text;html=1;align=center;verticalAlign=middle;resizable=0;points=[];autosize=1;rotation=0;" parent="1" vertex="1">
                    <mxGeometry x="300" y="314" width="210" height="20" as="geometry"/>
                </mxCell>
                <mxCell id="GYX6j8tE0jOFINhNC3Ar-87" value="&lt;div&gt;Global State - Position&lt;br&gt;&lt;/div&gt;&lt;div&gt;(GlobalState.msg)&lt;br&gt;&lt;/div&gt;" style="text;html=1;align=center;verticalAlign=middle;resizable=0;points=[];autosize=1;rotation=0;" parent="1" vertex="1">
                    <mxGeometry x="330" y="358" width="150" height="30" as="geometry"/>
                </mxCell>
                <mxCell id="GYX6j8tE0jOFINhNC3Ar-89" value="&lt;div&gt;TBD: MS Commands (CtrlData.msg)&lt;/div&gt;" style="text;html=1;align=center;verticalAlign=middle;resizable=0;points=[];autosize=1;rotation=0;" parent="1" vertex="1">
                    <mxGeometry x="180" y="166" width="210" height="20" as="geometry"/>
                </mxCell>
                <mxCell id="csX2sQHDqy6ObiTzpXhX-2" style="edgeStyle=orthogonalEdgeStyle;rounded=0;orthogonalLoop=1;jettySize=auto;html=1;exitX=0.25;exitY=1;exitDx=0;exitDy=0;entryX=0.25;entryY=0;entryDx=0;entryDy=0;" parent="1" source="csX2sQHDqy6ObiTzpXhX-1" target="GYX6j8tE0jOFINhNC3Ar-9" edge="1">
                    <mxGeometry relative="1" as="geometry"/>
                </mxCell>
                <mxCell id="csX2sQHDqy6ObiTzpXhX-3" style="edgeStyle=orthogonalEdgeStyle;rounded=0;orthogonalLoop=1;jettySize=auto;html=1;exitX=0;exitY=0.75;exitDx=0;exitDy=0;entryX=1;entryY=0.75;entryDx=0;entryDy=0;" parent="1" source="csX2sQHDqy6ObiTzpXhX-1" target="GYX6j8tE0jOFINhNC3Ar-1" edge="1">
                    <mxGeometry relative="1" as="geometry"/>
                </mxCell>
                <mxCell id="csX2sQHDqy6ObiTzpXhX-4" style="edgeStyle=orthogonalEdgeStyle;rounded=0;orthogonalLoop=1;jettySize=auto;html=1;exitX=0;exitY=0.5;exitDx=0;exitDy=0;entryX=1;entryY=0.5;entryDx=0;entryDy=0;" parent="1" source="csX2sQHDqy6ObiTzpXhX-1" target="GYX6j8tE0jOFINhNC3Ar-1" edge="1">
                    <mxGeometry relative="1" as="geometry"/>
                </mxCell>
                <mxCell id="csX2sQHDqy6ObiTzpXhX-9" style="edgeStyle=orthogonalEdgeStyle;rounded=0;orthogonalLoop=1;jettySize=auto;html=1;exitX=0.75;exitY=1;exitDx=0;exitDy=0;entryX=0.75;entryY=0;entryDx=0;entryDy=0;" parent="1" source="csX2sQHDqy6ObiTzpXhX-1" target="GYX6j8tE0jOFINhNC3Ar-9" edge="1">
                    <mxGeometry relative="1" as="geometry"/>
                </mxCell>
                <mxCell id="csX2sQHDqy6ObiTzpXhX-1" value="&lt;div&gt;Gazebo_Comm.&lt;/div&gt;&lt;div&gt;Node&lt;/div&gt;&lt;div&gt;(500 Hz)&lt;/div&gt;" style="rounded=1;whiteSpace=wrap;html=1;" parent="1" vertex="1">
                    <mxGeometry x="590" y="289" width="120" height="90" as="geometry"/>
                </mxCell>
                <mxCell id="csX2sQHDqy6ObiTzpXhX-8" value="" style="endArrow=classic;startArrow=classic;html=1;entryX=0.5;entryY=1;entryDx=0;entryDy=0;" parent="1" source="csX2sQHDqy6ObiTzpXhX-1" target="csX2sQHDqy6ObiTzpXhX-24" edge="1">
                    <mxGeometry width="50" height="50" relative="1" as="geometry">
                        <mxPoint x="470" y="489" as="sourcePoint"/>
                        <mxPoint x="520" y="439" as="targetPoint"/>
                    </mxGeometry>
                </mxCell>
                <mxCell id="csX2sQHDqy6ObiTzpXhX-10" value="State Service &lt;br&gt;&lt;div&gt;Calls&lt;/div&gt;" style="text;html=1;align=center;verticalAlign=middle;resizable=0;points=[];autosize=1;" parent="1" vertex="1">
                    <mxGeometry x="650" y="253" width="100" height="30" as="geometry"/>
                </mxCell>
                <mxCell id="csX2sQHDqy6ObiTzpXhX-27" style="edgeStyle=orthogonalEdgeStyle;rounded=0;orthogonalLoop=1;jettySize=auto;html=1;exitX=1;exitY=0.5;exitDx=0;exitDy=0;entryX=0;entryY=0.25;entryDx=0;entryDy=0;" parent="1" source="csX2sQHDqy6ObiTzpXhX-11" target="csX2sQHDqy6ObiTzpXhX-24" edge="1">
                    <mxGeometry relative="1" as="geometry"/>
                </mxCell>
                <mxCell id="csX2sQHDqy6ObiTzpXhX-11" value="&lt;div&gt;Motor Model&lt;/div&gt;&lt;div&gt;Plugin&lt;br&gt; &lt;/div&gt;" style="rounded=1;whiteSpace=wrap;html=1;" parent="1" vertex="1">
                    <mxGeometry x="444" y="142" width="120" height="44" as="geometry"/>
                </mxCell>
                <mxCell id="csX2sQHDqy6ObiTzpXhX-25" style="edgeStyle=orthogonalEdgeStyle;rounded=0;orthogonalLoop=1;jettySize=auto;html=1;exitX=1;exitY=0.5;exitDx=0;exitDy=0;entryX=0;entryY=0.75;entryDx=0;entryDy=0;" parent="1" source="csX2sQHDqy6ObiTzpXhX-12" target="csX2sQHDqy6ObiTzpXhX-24" edge="1">
                    <mxGeometry relative="1" as="geometry"/>
                </mxCell>
                <mxCell id="csX2sQHDqy6ObiTzpXhX-12" value="&lt;div&gt;Sticky Foot&lt;/div&gt;&lt;div&gt;Plugin&lt;br&gt;&lt;/div&gt;" style="rounded=1;whiteSpace=wrap;html=1;" parent="1" vertex="1">
                    <mxGeometry x="445" y="189" width="120" height="44" as="geometry"/>
                </mxCell>
                <mxCell id="csX2sQHDqy6ObiTzpXhX-23" value="TBD: Sticky Flag (StickyCMD.msg)" style="text;html=1;align=center;verticalAlign=middle;resizable=0;points=[];autosize=1;rotation=0;" parent="1" vertex="1">
                    <mxGeometry x="210" y="213" width="200" height="20" as="geometry"/>
                </mxCell>
                <mxCell id="csX2sQHDqy6ObiTzpXhX-24" value="&lt;div&gt;Gazebo&lt;/div&gt;&lt;div&gt;Application&lt;br&gt;&lt;/div&gt;" style="rounded=1;whiteSpace=wrap;html=1;" parent="1" vertex="1">
                    <mxGeometry x="589" y="140" width="120" height="95" as="geometry"/>
                </mxCell>
                <mxCell id="r23Sy4kyAW7ISlO-Up5t-1" value="&lt;div&gt;Action&lt;br&gt;&lt;/div&gt;&lt;div&gt;Commands&lt;/div&gt;&lt;div&gt;(RLCmd.msg)&lt;br&gt;&lt;/div&gt;" style="text;html=1;align=center;verticalAlign=middle;resizable=0;points=[];autosize=1;" parent="1" vertex="1">
                    <mxGeometry x="77" y="960" width="90" height="50" as="geometry"/>
                </mxCell>
                <mxCell id="r23Sy4kyAW7ISlO-Up5t-2" value="&lt;div&gt;Reward Data&lt;/div&gt;&lt;div&gt;(Reward.msg)&lt;br&gt;&lt;/div&gt;" style="text;html=1;align=center;verticalAlign=middle;resizable=0;points=[];autosize=1;rotation=0;" parent="1" vertex="1">
                    <mxGeometry x="540" y="750" width="100" height="30" as="geometry"/>
                </mxCell>
                <mxCell id="r23Sy4kyAW7ISlO-Up5t-3" value="&lt;div&gt;Global State&lt;/div&gt;&lt;div&gt;(GlobalState.msg)&lt;/div&gt;" style="text;html=1;align=center;verticalAlign=middle;resizable=0;points=[];autosize=1;rotation=0;" parent="1" vertex="1">
                    <mxGeometry x="50" y="760" width="130" height="30" as="geometry"/>
                </mxCell>
                <mxCell id="r23Sy4kyAW7ISlO-Up5t-4" value="&lt;div&gt;Estimated State&lt;/div&gt;&lt;div&gt;(EstState.msg)&lt;br&gt;&lt;/div&gt;" style="text;html=1;align=center;verticalAlign=middle;resizable=0;points=[];autosize=1;rotation=0;" parent="1" vertex="1">
                    <mxGeometry x="270" y="930" width="110" height="30" as="geometry"/>
                </mxCell>
                <mxCell id="r23Sy4kyAW7ISlO-Up5t-5" value="&lt;div&gt;MS Commands&lt;/div&gt;&lt;div&gt;(CtrlData.msg)&lt;/div&gt;" style="text;html=1;align=center;verticalAlign=middle;resizable=0;points=[];autosize=1;rotation=0;" parent="1" vertex="1">
                    <mxGeometry x="300" y="760" width="100" height="30" as="geometry"/>
                </mxCell>
                <mxCell id="r23Sy4kyAW7ISlO-Up5t-6" value="&lt;ul&gt;&lt;li&gt;std_msgs/Header &lt;br&gt;&lt;/li&gt;&lt;li&gt;geometry_msgs/Pose&lt;/li&gt;&lt;ul&gt;&lt;li&gt;position&lt;/li&gt;&lt;li&gt;orientation&lt;/li&gt;&lt;/ul&gt;&lt;li&gt;geometry_msgs/Twist&lt;/li&gt;&lt;ul&gt;&lt;li&gt;linear&lt;/li&gt;&lt;li&gt;angular&lt;br&gt;&lt;/li&gt;&lt;/ul&gt;&lt;/ul&gt;&lt;div&gt;&lt;br&gt;&lt;/div&gt;&lt;div&gt;&lt;br&gt;&lt;/div&gt;" style="text;html=1;strokeColor=none;fillColor=none;spacing=5;spacingTop=-20;whiteSpace=wrap;overflow=hidden;rounded=0;" parent="1" vertex="1">
                    <mxGeometry x="20" y="800" width="190" height="140" as="geometry"/>
                </mxCell>
                <mxCell id="r23Sy4kyAW7ISlO-Up5t-7" value="&lt;ul&gt;&lt;li&gt;std_msgs/Header?&lt;br&gt;&lt;/li&gt;&lt;li&gt;geometry_msgs/Quaternion orientation&lt;br&gt;&lt;/li&gt;&lt;li&gt;geometry_msgs/Vector3 angular_velocity&lt;/li&gt;&lt;li&gt;geometry_msgs/Vector3 linear_acceleration&lt;/li&gt;&lt;li&gt;Future OF Stuff&lt;br&gt;&lt;/li&gt;&lt;/ul&gt;&lt;div&gt;&lt;br&gt;&lt;/div&gt;" style="text;html=1;strokeColor=none;fillColor=none;spacing=5;spacingTop=-20;whiteSpace=wrap;overflow=hidden;rounded=0;" parent="1" vertex="1">
                    <mxGeometry x="240" y="970" width="320" height="110" as="geometry"/>
                </mxCell>
                <mxCell id="r23Sy4kyAW7ISlO-Up5t-8" value="&lt;ul&gt;&lt;li&gt;&lt;span&gt;Header header&lt;/span&gt;&lt;br&gt;&lt;/li&gt;&lt;li&gt;string trial_name&lt;/li&gt;&lt;li&gt;string agent&lt;/li&gt;&lt;li&gt;&lt;br&gt;&lt;/li&gt;&lt;li&gt;bool logging_flag&lt;/li&gt;&lt;li&gt;bool createCSV_flag&lt;/li&gt;&lt;li&gt;bool flip_flag&lt;/li&gt;&lt;li&gt;bool runComplete_flag&lt;/li&gt;&lt;li&gt;&lt;br&gt;&lt;/li&gt;&lt;li&gt;uint8 k_ep&lt;/li&gt;&lt;li&gt;uint8 k_run&lt;/li&gt;&lt;li&gt;&lt;br&gt;&lt;/li&gt;&lt;li&gt;uint8 n_rollouts&lt;/li&gt;&lt;li&gt;float32 gamma&lt;/li&gt;&lt;li&gt;float32 h_ceiling&lt;/li&gt;&lt;/ul&gt;" style="text;html=1;strokeColor=none;fillColor=none;spacing=5;spacingTop=-20;whiteSpace=wrap;overflow=hidden;rounded=0;horizontal=1;" parent="1" vertex="1">
                    <mxGeometry x="510" y="790" width="180" height="310" as="geometry"/>
                </mxCell>
                <mxCell id="r23Sy4kyAW7ISlO-Up5t-9" value="&lt;ul&gt;&lt;li&gt;std_msgs/Float32[]&amp;nbsp; motorspeeds&lt;br&gt;&lt;/li&gt;&lt;/ul&gt;" style="text;html=1;strokeColor=none;fillColor=none;spacing=5;spacingTop=-20;whiteSpace=wrap;overflow=hidden;rounded=0;" parent="1" vertex="1">
                    <mxGeometry x="240" y="800" width="260" height="20" as="geometry"/>
                </mxCell>
                <mxCell id="r23Sy4kyAW7ISlO-Up5t-10" value="&lt;ul&gt;&lt;li&gt;std_msgs/uint16 cmd_type&lt;/li&gt;&lt;li&gt;geometry_msgs/Point cmd_vals&lt;/li&gt;&lt;li&gt;std_msgs/float32 cmd_flag&lt;br&gt;&lt;/li&gt;&lt;/ul&gt;&lt;div&gt;&lt;br&gt;&lt;/div&gt;&lt;div&gt;&lt;br&gt;&lt;/div&gt;" style="text;html=1;strokeColor=none;fillColor=none;spacing=5;spacingTop=-20;whiteSpace=wrap;overflow=hidden;rounded=0;" parent="1" vertex="1">
                    <mxGeometry x="20" y="1010" width="220" height="70" as="geometry"/>
                </mxCell>
                <mxCell id="3" value="&lt;ul&gt;&lt;li&gt;&lt;span&gt;float32[] alpha_mu&lt;/span&gt;&lt;br&gt;&lt;/li&gt;&lt;li&gt;float32[] alpha_sigma&lt;/li&gt;&lt;li&gt;float32[] mu&lt;/li&gt;&lt;li&gt;float32[] sigma&lt;/li&gt;&lt;li&gt;&lt;br&gt;&lt;/li&gt;&lt;li&gt;float32[] policy&lt;/li&gt;&lt;li&gt;&lt;br&gt;&lt;/li&gt;&lt;li&gt;float32 reward&lt;/li&gt;&lt;li&gt;&lt;br&gt;&lt;/li&gt;&lt;li&gt;float32[] vel_d&lt;/li&gt;&lt;li&gt;float32[] omega_d&lt;br&gt;&lt;/li&gt;&lt;/ul&gt;" style="text;html=1;strokeColor=none;fillColor=none;spacing=5;spacingTop=-20;whiteSpace=wrap;overflow=hidden;rounded=0;horizontal=1;" vertex="1" parent="1">
                    <mxGeometry x="670" y="790" width="180" height="310" as="geometry"/>
                </mxCell>
            </root>
        </mxGraphModel>
    </diagram>
    <diagram id="nIwKfeP6t6e0K-6bQi9A" name="Page-2">
        <mxGraphModel dx="1355" dy="770" grid="1" gridSize="10" guides="1" tooltips="1" connect="1" arrows="1" fold="1" page="1" pageScale="1" pageWidth="850" pageHeight="1100" math="0" shadow="0">
            <root>
                <mxCell id="eUmmcljjAVMP1PaqSPiZ-0"/>
                <mxCell id="eUmmcljjAVMP1PaqSPiZ-1" parent="eUmmcljjAVMP1PaqSPiZ-0"/>
                <mxCell id="n7GJKIN_BkU1mC2qrZna-0" value="&lt;div&gt;Action&lt;br&gt;&lt;/div&gt;&lt;div&gt;Commands&lt;/div&gt;&lt;div&gt;(CFCommands.msg)&lt;br&gt;&lt;/div&gt;" style="text;html=1;align=center;verticalAlign=middle;resizable=0;points=[];autosize=1;" parent="eUmmcljjAVMP1PaqSPiZ-1" vertex="1">
                    <mxGeometry x="500" y="330" width="140" height="50" as="geometry"/>
                </mxCell>
                <mxCell id="g4kGXNhMa9So99Ss_wjb-0" value="&lt;div&gt;Reward Data&lt;/div&gt;&lt;div&gt;(Reward.msg)&lt;br&gt;&lt;/div&gt;" style="text;html=1;align=center;verticalAlign=middle;resizable=0;points=[];autosize=1;rotation=0;" parent="eUmmcljjAVMP1PaqSPiZ-1" vertex="1">
                    <mxGeometry x="370" y="95" width="100" height="30" as="geometry"/>
                </mxCell>
                <mxCell id="1iVR3jgshGj8voVjU0Wq-0" value="&lt;div&gt;Global State&lt;/div&gt;&lt;div&gt;(GlobalState.msg)&lt;/div&gt;" style="text;html=1;align=center;verticalAlign=middle;resizable=0;points=[];autosize=1;rotation=0;" parent="eUmmcljjAVMP1PaqSPiZ-1" vertex="1">
                    <mxGeometry x="80" y="95" width="130" height="30" as="geometry"/>
                </mxCell>
                <mxCell id="wXeXgULKl54EpwOFL07P-0" value="&lt;div&gt;Estimated State&lt;/div&gt;&lt;div&gt;(EstState.msg)&lt;br&gt;&lt;/div&gt;" style="text;html=1;align=center;verticalAlign=middle;resizable=0;points=[];autosize=1;rotation=0;" parent="eUmmcljjAVMP1PaqSPiZ-1" vertex="1">
                    <mxGeometry x="90" y="340" width="110" height="30" as="geometry"/>
                </mxCell>
                <mxCell id="G61nbyIcO0rgjP_906iy-0" value="&lt;div&gt;MS Commands&lt;/div&gt;&lt;div&gt;(MSCommands.msg)&lt;/div&gt;" style="text;html=1;align=center;verticalAlign=middle;resizable=0;points=[];autosize=1;rotation=0;" parent="eUmmcljjAVMP1PaqSPiZ-1" vertex="1">
                    <mxGeometry x="600" y="95" width="140" height="30" as="geometry"/>
                </mxCell>
                <mxCell id="We3G5fBXF-yeKgjlOx5w-1" value="&lt;ul&gt;&lt;li&gt;std_msgs/Header &lt;br&gt;&lt;/li&gt;&lt;li&gt;geometry_msgs/Pose&lt;/li&gt;&lt;ul&gt;&lt;li&gt;position&lt;/li&gt;&lt;li&gt;orientation&lt;/li&gt;&lt;/ul&gt;&lt;li&gt;geometry_msgs/Twist&lt;/li&gt;&lt;ul&gt;&lt;li&gt;linear&lt;/li&gt;&lt;li&gt;angular&lt;br&gt;&lt;/li&gt;&lt;/ul&gt;&lt;/ul&gt;&lt;div&gt;&lt;br&gt;&lt;/div&gt;&lt;div&gt;&lt;br&gt;&lt;/div&gt;" style="text;html=1;strokeColor=none;fillColor=none;spacing=5;spacingTop=-20;whiteSpace=wrap;overflow=hidden;rounded=0;" parent="eUmmcljjAVMP1PaqSPiZ-1" vertex="1">
                    <mxGeometry x="50" y="135" width="190" height="120" as="geometry"/>
                </mxCell>
                <mxCell id="We3G5fBXF-yeKgjlOx5w-2" value="&lt;ul&gt;&lt;li&gt;std_msgs/Header?&lt;br&gt;&lt;/li&gt;&lt;li&gt;geometry_msgs/Quaternion orientation&lt;br&gt;&lt;/li&gt;&lt;li&gt;geometry_msgs/Vector3 angular_velocity&lt;/li&gt;&lt;li&gt;geometry_msgs/Vector3 linear_acceleration&lt;/li&gt;&lt;li&gt;&amp;nbsp;&lt;/li&gt;&lt;li&gt;Future OF Stuff&lt;br&gt;&lt;/li&gt;&lt;/ul&gt;&lt;div&gt;&lt;br&gt;&lt;/div&gt;" style="text;html=1;strokeColor=none;fillColor=none;spacing=5;spacingTop=-20;whiteSpace=wrap;overflow=hidden;rounded=0;" parent="eUmmcljjAVMP1PaqSPiZ-1" vertex="1">
                    <mxGeometry x="50" y="390" width="320" height="120" as="geometry"/>
                </mxCell>
                <mxCell id="We3G5fBXF-yeKgjlOx5w-3" value="&lt;ul&gt;&lt;li&gt;std_msgs/UInt8 k_ep&lt;/li&gt;&lt;li&gt;std_msgs/UInt8 k_run&lt;/li&gt;&lt;li&gt;std_msgs/Float32 reward&lt;/li&gt;&lt;li&gt;std_msgs/Float32 reward_avg&lt;br&gt;&lt;/li&gt;&lt;/ul&gt;&lt;div&gt;&lt;br&gt;&lt;/div&gt;&lt;div&gt;&lt;br&gt;&lt;/div&gt;" style="text;html=1;strokeColor=none;fillColor=none;spacing=5;spacingTop=-20;whiteSpace=wrap;overflow=hidden;rounded=0;" parent="eUmmcljjAVMP1PaqSPiZ-1" vertex="1">
                    <mxGeometry x="340" y="135" width="240" height="120" as="geometry"/>
                </mxCell>
                <mxCell id="We3G5fBXF-yeKgjlOx5w-4" value="&lt;ul&gt;&lt;li&gt;std_msgs/Float32[]&amp;nbsp; motorspeeds&lt;br&gt;&lt;/li&gt;&lt;/ul&gt;" style="text;html=1;strokeColor=none;fillColor=none;spacing=5;spacingTop=-20;whiteSpace=wrap;overflow=hidden;rounded=0;" parent="eUmmcljjAVMP1PaqSPiZ-1" vertex="1">
                    <mxGeometry x="570" y="135" width="260" height="120" as="geometry"/>
                </mxCell>
                <mxCell id="We3G5fBXF-yeKgjlOx5w-5" value="&lt;ul&gt;&lt;li&gt;std_msgs/UInt8 cmd_type&lt;/li&gt;&lt;li&gt;std_msgs/Vector3 ctrl_vals&lt;/li&gt;&lt;li&gt;std_msgs/UInt8 ctrl_flag&lt;br&gt;&lt;/li&gt;&lt;/ul&gt;&lt;div&gt;&lt;br&gt;&lt;/div&gt;&lt;div&gt;&lt;br&gt;&lt;/div&gt;" style="text;html=1;strokeColor=none;fillColor=none;spacing=5;spacingTop=-20;whiteSpace=wrap;overflow=hidden;rounded=0;" parent="eUmmcljjAVMP1PaqSPiZ-1" vertex="1">
                    <mxGeometry x="470" y="390" width="260" height="120" as="geometry"/>
                </mxCell>
            </root>
        </mxGraphModel>
    </diagram>
</mxfile>